<svg xmlns="http://www.w3.org/2000/svg" fill="#000" viewBox="0 0 88 93">
  <path fill-rule="evenodd" d="M68.873 24.848 50.57 14.282a13 13 0 0 0-13 0l-18.3 10.566a13 13 0 0 0-6.5 11.258V57.24a13 13 0 0 0 6.5 11.258l18.301 10.566a13 13 0 0 0 13 0l18.302-10.566a13 13 0 0 0 6.5-11.258V36.106a13 13 0 0 0-6.5-11.258ZM56.57 3.889a25 25 0 0 0-25 0l-18.3 10.567a25 25 0 0 0-12.5 21.65V57.24a25 25 0 0 0 12.5 21.65l18.301 10.567a25 25 0 0 0 25 0L74.873 78.89a25 25 0 0 0 12.5-21.65V36.106a25 25 0 0 0-12.5-21.65L56.57 3.889Z" clip-rule="evenodd"/>
</svg>
